<svg xmlns="http://www.w3.org/2000/svg" xmlns:svg="http://www.w3.org/2000/svg" id="svg5" width="28.658" height="28.539" version="1.1" viewBox="0 0 7.583 7.551"><defs id="defs2"><rect id="rect1706" width="353.691" height="347.478" x="169.232" y="288.302"/><rect id="rect1706-4" width="353.691" height="347.478" x="169.232" y="288.302"/><rect id="rect1706-4-0" width="353.691" height="347.478" x="169.232" y="288.302"/><rect id="rect1706-0" width="353.691" height="347.478" x="169.232" y="288.302"/></defs><g id="layer1" transform="translate(-39.261241,-78.694485)"><path style="fill:#0a3041;fill-opacity:1;stroke:none;stroke-width:.00679134;stroke-miterlimit:4;stroke-dasharray:none;stroke-opacity:1;paint-order:stroke fill markers" id="path105669" transform="scale(0.26458333)"/><path style="fill:#0a3041;fill-opacity:1;stroke:none;stroke-width:.00679134;stroke-miterlimit:4;stroke-dasharray:none;stroke-opacity:1;paint-order:stroke fill markers" id="path105973" transform="scale(0.26458333)"/><path style="fill:#0a3041;fill-opacity:1;stroke:none;stroke-width:.00679134;stroke-miterlimit:4;stroke-dasharray:none;stroke-opacity:1;paint-order:stroke fill markers" id="path106086" transform="scale(0.26458333)"/><path style="fill:#0a3041;fill-opacity:1;stroke:none;stroke-width:.00679134;stroke-miterlimit:4;stroke-dasharray:none;stroke-opacity:1;paint-order:stroke fill markers" id="path106495" transform="scale(0.26458333)"/><path style="fill:#0a3041;fill-opacity:1;stroke:none;stroke-width:.00679134;stroke-miterlimit:4;stroke-dasharray:none;stroke-opacity:1;paint-order:stroke fill markers" id="path106756" transform="scale(0.26458333)"/><g id="g104345" transform="translate(-5.3906821)"><path id="rect109066" style="fill:#0a3041;stroke-width:.445794;stroke-linejoin:round;paint-order:stroke fill markers" d="m 48.37676,80.565796 h 0.275672 c 0.77373,0 1.396624,0.622894 1.396624,1.396623 v 0.512698 c 0,0.773729 -0.622894,1.396623 -1.396624,1.396623 H 48.37676 c -0.773729,0 -1.396623,-0.622894 -1.396623,-1.396623 v -0.512698 c 0,-0.773729 0.622894,-1.396623 1.396623,-1.396623 z"/><g id="text1704" aria-label="A" transform="scale(0.26458333)" style="font-size:40px;line-height:1.25;white-space:pre;shape-inside:url(#rect1706);stroke:#0a3041;stroke-width:1.73858;stroke-linejoin:round;stroke-miterlimit:4;stroke-dasharray:none"><path d="m 196.55242,325.09727 -12,-26.8 h -2.92 l -12,26.8 h 3.4 l 3,-6.8 h 14.12 l 3,6.8 z m -7.64,-9.64 h -11.64 l 5.84,-13.24 z" style="font-family:GalanoGrotesque-Regular;-inkscape-font-specification:GalanoGrotesque-Regular;fill:#43dc8a;stroke-width:1.73858;stroke-linecap:butt;stroke-linejoin:round;stroke-miterlimit:4;stroke-dasharray:none;paint-order:stroke fill markers" id="path97190"/></g><path id="rect97233" style="fill:#43dc8a;stroke-width:.692686;stroke-linejoin:round;paint-order:stroke fill markers" d="m 47.941528,79.750755 h 1.020557 v 0.895827 h -1.020557 z"/><path style="fill:#0a3041;fill-opacity:1;stroke:none;stroke-width:.00679134;stroke-linejoin:round;stroke-miterlimit:4;stroke-dasharray:none;stroke-opacity:1;paint-order:stroke fill markers" id="path107099" d="m 182.8291,305.87402 c 0.14448,-5.6e-4 0.38091,-5.6e-4 0.52539,0 0.14448,5.7e-4 0.0263,0.001 -0.26269,0.001 -0.28897,0 -0.40718,-4.7e-4 -0.2627,-0.001 z" transform="scale(0.26458333)"/><path id="text1704-5" style="font-style:normal;font-weight:400;font-size:40px;line-height:1.25;font-family:sans-serif;white-space:pre;shape-inside:url(#rect1706-4);fill:#43dc8a;fill-opacity:1;stroke:none;stroke-width:.0949087;stroke-linejoin:round" d="m 48.305001,80.95 -0.608775,1.359606 h 0.313688 l 0.435654,-0.987536 0.432552,0.987536 h 0.312656 L 48.581999,80.95 Z M 47.575814,82.578841 47.166,83.493514 h 0.322995 l 0.284749,-0.644922 h 1.340029 l 0.284751,0.644922 H 49.721 l -0.409814,-0.914673 h -0.226869 -0.08837 -1.104893 -0.146769 z"/></g></g></svg>